<?xml version="1.0" encoding="utf-8"?>
<!-- Generator: Adobe Illustrator 24.3.0, SVG Export Plug-In . SVG Version: 6.00 Build 0)  -->
<svg version="1.1" id="Capa_1" xmlns="http://www.w3.org/2000/svg" xmlns:xlink="http://www.w3.org/1999/xlink" x="0px" y="0px"
	 viewBox="0 0 494 320" style="enable-background:new 0 0 494 320;" xml:space="preserve">
<style type="text/css">
	.st0{fill:#FFFFFF;}
	.st1{fill:#5F7884;}
	.st2{fill:#CFB96A;}
	.st3{fill:#A1904C;}
	.st4{fill:#732706;}
	.st5{fill:#B65534;}
	.st6{fill:#6F4B52;}
</style>
<g>
	<path class="st0" d="M0,320C0,213.4,0,106.7,0,0c164.6,0,329.3,0,494,0c0,106.6,0,213.2,0,320C329.4,320,164.7,320,0,320z
		 M293.5,153.1c-0.2-0.7-0.2-1-0.3-1.2c-0.7-1.4-1.4-2.9-2.2-4.3c-0.7,1.5-1.9,2.9-2,4.4c-0.2,6.1-0.2,12.2,0,18.3
		c0,1.3,1.3,2.6,2,4c0.7-1.3,1.9-2.6,2-4c0.3-4,0.1-8.1,0.1-12.3c2.8,0,7.6,0,7.6,0s-0.2,8.1,0.1,12.1c0.1,1.1,1.4,2.1,2.2,3.1
		c0.6-1.1,1.7-2.1,1.7-3.2c0.1-8.5,0.2-17-0.2-25.4c-0.5-10.3-7.7-18-17.7-19.8c-1.1-0.2-2.2-0.5-3.3-0.7c2.7-3.6,5.8-6.6,7.4-10.2
		c1.9-4.3,2.8-8.9,7.3-11.4c0.7-0.4,1.1-1.4,1.3-2.2c1.2-4.3,2.4-8.5,3.3-12.8c0.4-2.1,0.2-4.4,0.1-6.6c-0.3-3.3-2-5.5-5.1-6.7
		c-6.8-2.6-14.4-2.3-21-5.7c-2.3-1.2-5.6-0.5-8.4-0.4c-5.8,0.2-10.5,5.5-16.8,4c-0.3-0.1-0.7,0.3-1,0.4c-4.8,2.1-6.8,1.4-9.4-3.2
		c-2.2-4-6.1-5.6-10.6-5.4c-2.6,0.1-5.7-0.7-7.8-2.1c-4.8-3.2-12.1-2-14.5,3.2c-0.6,1.3,0,3,0,4.6c1.1-0.8,2.6-1.4,3.3-2.5
		c2.2-3.4,6.1-4,9.3-1.3c1.3,1.1,3,1.8,4.7,2.2c1.9,0.4,3.9,0.3,5.8,0.1c2.7-0.3,4.7,0.5,6,2.9c1.9,3.4,5.6,6.3,2.9,10.9
		c-0.1,0.2,0.1,0.5,0,0.7c-0.3,1.6-0.7,3.1-1.1,4.7c-1.5-0.8-3-1.6-4.6-2.3c-0.9-0.4-1.9-0.7-2.8-1c-0.2,1.1-0.9,2.6-0.4,3.2
		c1.4,1.8,3.3,3.4,5.5,5.5c-1.1-0.1-2,0-2.4-0.3c-3.6-3.7-7.2-3.5-11.4-0.8c-1.2,0.8-3.7,0.6-5-0.2c-4.8-2.7-7.4-2.5-11.5,1
		c-0.7,0.6-2,0.4-3,0.6c1.9-2.1,3.6-3.6,5.6-4.4c2.9-1.2,6.1-3,8.9-2.7c3.4,0.4,6.2,0,8.7-2c0.9-0.7,1.1-2.2,1.7-3.3
		c-1.3,0-3.1-0.5-3.9,0.2c-2.3,1.8-4.1,1.6-6.4,0.1c-0.8-0.5-2.8-0.2-3.6,0.5c-3.2,2.6-8.3,1.9-10.6,6c-0.1,0.2-0.7,0.1-1.1,0.2
		c-3.5,0.6-7,1.3-11,2c-1.2-2-0.2-4.5,1.6-7c0.8-1.1,1.7-2.5,1.9-3.8c0.9-5.2,1.4-5.7,6.8-6.6c1-0.2,1.7-1.3,2.6-2
		c-0.8-0.7-1.4-1.7-2.3-2c-4.5-1.4-9.7,2.4-11,7.8c-0.2,1.1-0.1,2.4-0.8,3.2c-4.6,5.5-4.3,11.1-0.3,16.6c-5.5,8.2-0.2,20,9.5,21.1
		c4.9,0.5,6,4.7,9.6,7.4c-1.8,0.4-2.7,0.5-3.5,0.7c-10.8,2-17.9,9.5-18.5,20.4c-0.4,8.3-0.2,16.7-0.1,25.1c0,1,1.2,2.1,1.8,3.1
		c0.7-1.1,2-2.1,2-3.2c0.3-3.9,0.1-11,0.1-11h7.6c0,0-0.2,6.4,0.1,9.8c0.1,1.5,1.3,2.9,2.1,4.4c0.6-1.4,1.8-2.8,1.9-4.2
		c0.2-5.5,0.2-11,0-16.5c0-1.6,0.9-4.3-2-4.2c-0.8,0-1.5,2.7-2.2,4.2c-0.1,0.2-0.4,0.4-0.4,0.4s-4.5,0-6.8,0
		c-1.5-12.3,1.9-21.1,9-23.5c0.1,0.2,0.3,0.4,0.3,0.6c1.1,10.5,8.7,15,17.7,10.7c1.2-0.6,3.1-0.4,4.3,0.3c3.6,1.8,7.1,2.1,10.8,0.1
		c4.5-2.5,6.6-6.5,7.4-11.8c0.7,1.2,0.9,2.3,0.6,3.2c-1.1,3.8-2.5,7.4-3.4,11.2c-0.2,0.9,1,2.3,1.6,3.4c0.8-1,1.6-1.9,2.3-2.9
		c0.3-0.5,0.1-1.3,0.3-1.9c1.3-6.4,4.3-11.3,10.6-14.1c1.5,5.1,3,9.7,4.3,14.4c0.9,3.1,2.4,3.7,5,2.1c2.1-1.3,4.3-2.4,7.3-4
		c0,2.6-0.2,4.5,0.1,6.2c0.1,0.9,1.2,1.6,1.8,2.4c0.7-0.8,1.8-1.4,2-2.3c0.4-1.8,0.3-3.8,0.4-6.2c2.8,1.6,5.1,2.9,7.4,4.2
		c1.9,1.1,3.3,0.8,4.1-1.6c0.9-3,2-6,2.7-9.1c0.2-1.1-0.5-2.5-0.8-3.7c-1,0.9-2.4,1.6-2.9,2.8c-1,2.1-1.6,4.6-2.4,7.1
		c-2.2-1.3-3.9-2.3-5.9-3.5c3-3.2,8.8-3.5,7.4-9.7c11.7-1.1,19.8,11.7,16.8,26.2c-1.2,0-2.4,0-3.6,0
		C295.6,153.3,294.6,153.2,293.5,153.1z M157.4,203.6c3.3-3.6,4.4-5.8,2.8-8.7c-1-2-3.3-4.3-5.2-4.5c-5.9-0.6-11.9-0.2-18-0.2
		c0,10,0,20,0,30c5.7,0,11.1,0.2,16.4-0.1c4.7-0.3,7.6-2.8,8.5-6.5C162.9,209.4,161.7,206.5,157.4,203.6z M325.3,205.6
		c4-2.9,4.9-6.5,3.5-10.5c-1.5-4.2-5.1-5.5-9.3-5.5c-1.4,0-2.7-0.1-4.1,0c-3.7,0.2-8.6-0.9-10.7,1c-1.9,1.7-0.7,6.8-0.7,10.3
		c-0.1,6.3,0,12.6,0,19.1c2.5,0,4.4,0,7,0c0-3.9,0-7.7,0-11.4c9.3-1.2,10.7-0.4,11.7,6.8c0.8,5.4,1.2,5.6,7.2,4.2
		C328.4,215,330.5,209.4,325.3,205.6z M377,215c0-2.5,0-5.4,0-8c4.9,0,9.4,0,14,0c0-1.8,0-3.2,0-5c-4.8,0-9.3,0-14,0
		c0-2.3,0-4.6,0-7c5.6,0,10.9,0,17.4,0c-1.1-2.4-1.7-5.4-2.5-5.4c-7.3-0.4-14.6-0.2-21.9-0.2c0,10.6,0,20.6,0,30.6c8,0,15.5,0,23,0
		c0-1.7,0-3.3,0-5C387.5,215,382.4,215,377,215z M231,215c-5.6,0-10.9,0-16,0c0-2.9,0-5.2,0-8c4.8,0,9.4,0,14,0c0-2,0-2.9,0-5
		c-4.8,0-9.3,0-14,0c0-2.5,0-4.5,0-7c5.2,0,10,0,15,0c0-1.9,0-3.4,0-5c-7.5,0-14.7,0-22,0c0,9.4,0,21,0,30c7.9,0,15.4,0,23,0
		C231,218.4,231,217,231,215z M177.8,190c-2.4,0-4.5,0-6.8,0c0,7.1-0.4,13.8,0.2,20.5c0.2,2.7,1.8,5.9,3.8,7.6
		c4.6,3.8,10.2,3.6,15.6,1.5c5-2,6.3-6.4,6.4-11.3c0.1-4.5,0-9,0-13.5c0-5.8-0.8-6.3-6.9-4.4c0,5.9,0.1,11.8,0,17.8
		c-0.1,5.2-1.7,6.9-6.2,6.8c-4.6,0-6.1-1.7-6.2-6.9C177.8,202.4,177.8,196.5,177.8,190z M267,219.8c5.7,0.9,6.9,0.8,7.3-1.6
		c0.8-4.4,3.3-5.5,7.3-4.9c1.1,0.2,2.4-0.3,3.3,0.1c1.2,0.5,2.6,1.3,3,2.3c2.2,5.1,2.7,5.5,8.4,3.8c-3.5-9.4-6.9-18.9-10.7-28.2
		c-0.4-1-2.8-1.6-4.3-1.6c-1.3,0-3.3,0.9-3.7,1.9C274.1,200.9,270.7,210.2,267,219.8z M128.4,219.8c-0.1-0.5,0-1-0.2-1.4
		c-3.3-8.9-6.7-17.7-9.8-26.6c-0.9-2.5-2.7-2.1-4.5-2.2c-2-0.1-3.5,0.1-4.3,2.4c-2.1,6.1-4.5,12.1-6.8,18.2
		c-1.2,3.2-2.4,6.4-3.6,9.7c6,0.8,6,0.8,9.4-6.5c2.9,0,5.9-0.2,8.8,0.1c1,0.1,2.4,1.2,2.8,2.1C122.4,220.9,122.3,220.9,128.4,219.8z
		 M346,196c0,9.3,0,16,0,24c2.5,0,4.5,0,7,0c0-8.3,0-17.2,0-25c3.3,0,6.2,0,9,0c0-1.9,0-3.3,0-5c-8.4,0-16.8,0-25,0c0,2.1,0,3.9,0,6
		C339.9,196,342.6,196,346,196z M246,215c0-8.2,0-17,0-25c-2.3,0-4.2,0-6,0c0,10.2,0,20.1,0,30c6.8,0,14.3,0,22,0c0-1.7,0-3.1,0-5
		C256.7,215,251.7,215,246,215z M242.3,154.6c4.9,0.1,2.6,0,7.5,0.1c0.1,5.9-0.1,11,0.1,16c0,0.9,1.3,1.7,2,2.5
		c0.6-0.6,1.8-1.2,1.8-1.9c0.1-7.2,0.1-14.4,0-21.6c0-0.6-1.2-1.7-1.8-1.7c-0.7,0-1.7,0.9-1.9,1.7c-0.4,1.1-0.3,2.4-0.4,4.2
		c-2.7-0.3-5.2-0.1-7.4-1.1c-3.2-1.4-4-1.3-4.1,2.2c-0.1,5-0.2,10,0.1,14.9c0,1.1,1.3,2.2,1.9,3.3c0.7-1.1,1.9-2.2,2-3.3
		C242.5,164.9,242.1,159.9,242.3,154.6z M306.4,254.4c3.3,1,3.4,1,3.8-1.8c0.4-2.7,0.6-5.4,0.9-8c1.6,2.5,2.3,5,3.3,7.4
		c0.5,1.1,1.4,2.1,2.1,3.1c0.8-1,1.8-1.9,2.2-3c1.1-2.6,1.8-5.3,2.7-7.9c1,2.9,1.4,5.7,1.5,8.4c0.2,2.8,1.5,3,3.8,1.9
		c-0.5-5.5-0.9-10.9-1.4-16.3c-3.6-1.2-5.8-0.6-6.6,3.2c-0.4,2-1.3,3.8-1.9,5.7c-1.4-2-2.3-3.8-2.6-5.7c-0.7-3.8-2.9-4.5-6.6-3.3
		C307.3,243.6,306.8,249.1,306.4,254.4z M266.5,244.5c4.8,2.9,4.1,10.9,11.5,10.7c0-6,0-11.5,0-16.9c-3.4-0.4-3.4-0.4-3.5,2.4
		c-0.1,2.4,0,4.8,0,7.6c-4.9-2.8-4.1-10.8-11.5-10.4c0,5.9,0,11.4,0,17c2.3,0.8,3.6,0.4,3.5-2.2C266.4,250,266.5,247.4,266.5,244.5z
		 M206.1,255.3c5.1,0.1,8.9-3.4,9-8.5c0.2-5.1-3.6-9.1-8.8-9.1c-5.1-0.1-8.9,3.5-9,8.5C197.2,251.4,200.8,255.2,206.1,255.3z
		 M259.8,246.4c-0.1-5.3-3.8-8.9-9.1-8.7c-5.1,0.2-8.6,3.8-8.5,8.9c0.1,5.4,3.7,8.8,9.1,8.7C256.4,255.2,259.9,251.6,259.8,246.4z
		 M338,255.3c5.2,0.1,8.9-3.4,9-8.5c0.2-5.2-3.6-9.1-8.7-9.1c-5.1-0.1-8.9,3.5-9,8.5C329.2,251.5,332.8,255.2,338,255.3z M132,237.3
		c-3.9-0.2-3.9-0.2-4,2.8c-0.1,4,0.1,8.1,0,12.1c-0.1,3.1,1.3,3.5,3.9,2.4c0.1-2.3,0.2-4.5,0.3-6.7c2.6,0,4.8,0,7.4,0
		c0,1.8-0.2,3.3,0.1,4.6c0.2,1,1.3,1.7,1.9,2.6c0.6-0.8,1.7-1.6,1.7-2.4c0.2-4.4,0.1-8.9,0.1-13.3c0-2.9-1.6-2.6-3.7-2
		c-0.1,2.3-0.3,4.5-0.4,6.5c-2.7,0-4.8,0-7.3,0C132,241.7,132,239.7,132,237.3z M363.3,255c0.1-0.2,0.2-0.4,0.1-0.5
		c-1.3-2.4-2.7-4.7-4-7.2c2.7-1.5,4.1-3.6,2.7-6.8c-1.3-2.9-5.4-3.7-11-2.2c0,5.5,0,11.1,0,16.7c6.4,0.2,1.5-5.5,4.2-7.1
		C358.3,249.7,357.4,256.3,363.3,255z M240.1,250.5c-0.2-0.4-0.3-0.9-0.5-1.3c-1.3,0.5-2.7,0.9-3.9,1.6c-2.6,1.5-5,1.6-7.1-0.5
		c-1.9-1.9-1.8-6.1,0.3-7.8c2.3-1.9,4.9-2.2,7,0.1c1.6,1.8,2.8,1.5,4.2,0.2c-2-4.2-5.3-5.7-10.1-4.6c-3.7,0.8-6.3,4.1-6.4,8.1
		c-0.1,4.5,2.3,7.9,6.3,9C234.2,256.1,238,254.4,240.1,250.5z M183.6,245c-0.2-2.2-0.3-4.2-0.5-6.2c-4.6-0.5-2.9-0.3-3.6,6.6
		c-0.2,2.2,0,4.3,0.3,6.5c0.2,1.4-0.9,4,1.9,3.6c0.7-0.1,1.6-2.2,1.6-3.3c-0.2-2.9,0.8-4.2,3.8-3.7c1.1,0.2,2.1,0.2,3.3,0.3l0.3,6.6
		c3.5,1.1,4.7-0.1,2.6-7.8c-0.7-2.6-0.1-5.2,0.8-7.7c0.2-0.4-0.2-0.8-0.5-1.3c-0.9,0-1.9,0.1-3,0.2c-0.1,2.3-0.3,4.3-0.4,6.5h-6.6
		V245z M176.1,249.3c-1.3,0.4-2.8,0.6-3.9,1.3c-2.5,1.6-5.9,1.7-7.4-0.5c-1.8-2.5-1.9-5.2,0.1-7.6c1.7-2.1,5.2-2.3,7.3,0
		c1.7,1.8,2.8,1.3,4.2,0c-2.2-4.3-5.5-5.7-10.3-4.5c-3.8,0.9-6.4,4.4-6.3,8.6c0.1,4.3,2.6,7.6,6.5,8.5
		C170.7,256.1,174.4,254.3,176.1,249.3z M287.6,254.5c0.3,0.3,0.6,0.7,0.9,1c1-0.5,2.4-0.8,3.1-1.7c2.4-3.3,6.5-3.2,9,0
		c0.6,0.8,2.2,1,3.3,1.5c-1.3-5.9-3.1-10.9-5.1-15.8c-0.3-0.8-1.8-1.6-2.8-1.6s-2.4,0.8-2.8,1.6
		C291.2,244.5,289.4,249.5,287.6,254.5z M151,241.1c1.8,0,3.2,0.1,4.5-0.1c0.6-0.1,1.2-0.9,1.8-1.3c-0.6-0.6-1.1-1.7-1.8-1.7
		c-2.2-0.2-4.5-0.2-6.7,0c-0.6,0-1.6,1-1.6,1.5c-0.1,5.2-0.1,10.3-0.1,15.8c2.5,0,4.4,0.2,6.2-0.1c1.4-0.2,3.8-0.8,3.8-1.4
		c0.3-3-2.3-1.6-3.8-1.9c-0.4-0.1-0.9,0.1-1.1-0.1c-0.5-0.5-1.3-1.2-1.3-1.8c0-0.6,0.7-1.5,1.3-1.8c0.7-0.3,1.8,0.1,2.6-0.2
		c0.7-0.3,1.2-1.1,1.8-1.7c-0.6-0.5-1.1-1.2-1.7-1.4c-1.2-0.3-2.4-0.2-3.8-0.3C151,243.4,151,242.4,151,241.1z M200.3,84.2
		c2.2-1.9,4.2-3.6,6-5.6c0.4-0.4-0.4-1.8-0.6-2.8c-0.9,0.2-1.8,0.2-2.6,0.6c-1.5,0.9-3,1.9-4.3,3c-0.7,0.6-1.7,1.6-1.6,2.4
		C197.4,82.5,198.7,83,200.3,84.2z M234.9,80.4c1.6-1.2,2.9-1.7,3-2.4c0.1-0.7-0.8-1.8-1.5-2.4c-1.3-1.1-2.8-2.1-4.3-3
		c-0.7-0.4-1.7-0.5-2.6-0.7c-0.2,1-1,2.4-0.6,2.8C230.6,76.7,232.7,78.4,234.9,80.4z M216.2,73.9c-0.2-0.3-0.4-0.6-0.6-0.9
		c-0.9,0.6-1.8,1.2-2.7,1.8c0.8,1,1.4,2.4,2.4,2.8c2.8,1,5.1-0.2,6.6-2.7c0.4-0.6,0.3-2.1-0.2-2.5c-0.5-0.5-1.8-0.4-2.6-0.1
		C218.1,72.5,217.2,73.3,216.2,73.9z M281.5,158.9c1.5-1.3,2.6-2.3,3.7-3.3c-1.3-0.6-2.5-1.7-3.8-1.9c-1.6-0.2-4-0.6-3.7,2.1
		C277.7,156.8,279.7,157.5,281.5,158.9z"/>
	<path class="st1" d="M293.5,153.3c1.1,0.1,2.1,0.2,3,0.2c1.2,0,2.5,0,3.6,0c3.1-13.6-5-25.7-16.8-24.6c1.4,5.8-4.4,6.1-7.4,9.1
		c2,1.1,3.7,2.1,5.9,3.3c0.8-2.3,1.4-4.6,2.4-6.6c0.6-1.1,1.9-1.8,2.9-2.6c0.3,1.2,1.1,2.5,0.8,3.5c-0.7,2.9-1.8,5.7-2.7,8.6
		c-0.7,2.2-2.1,2.5-4.1,1.5c-2.3-1.2-4.6-2.4-7.4-3.9c-0.1,2.3,0,4.1-0.4,5.8c-0.2,0.8-1.3,1.4-2,2.2c-0.6-0.7-1.7-1.4-1.8-2.3
		c-0.3-1.6-0.1-3.4-0.1-5.9c-2.9,1.5-5.2,2.6-7.3,3.8c-2.6,1.5-4.1,0.9-5-2c-1.3-4.4-2.8-8.7-4.3-13.5c-6.2,2.6-9.2,7.2-10.6,13.2
		c-0.1,0.6,0,1.4-0.3,1.8c-0.6,1-1.5,1.8-2.3,2.8c-0.6-1.1-1.8-2.3-1.6-3.2c0.9-3.6,2.3-7,3.4-10.6c0.3-0.9,0-1.9-0.6-3
		c-0.8,5-2.8,8.8-7.4,11.1c-3.6,1.8-7.1,1.6-10.8-0.1c-1.2-0.6-3.2-0.8-4.3-0.2c-8.9,4.1-16.6-0.2-17.7-10.1c0-0.2-0.2-0.4-0.3-0.6
		c-7.1,2.3-9,21.8-9,21.8s4.4,0,6.7,0c0.1-0.3,0.3-0.5,0.4-0.7c0.8-1.5,1.5-4.4,2.3-4.4c3-0.1,2,2.7,2.1,4.4
		c0.1,5.7,0.2,11.4,0,17.2c-0.1,1.5-1.3,2.9-1.9,4.4c-0.8-1.5-2-3-2.2-4.6c-0.3-3.6-0.1-7.2-0.1-11.2c-2.6,0-7.5,0-7.5,0
		s0.2,8-0.1,12c-0.1,1.1-1.3,2.2-2,3.2c-0.6-1-1.8-2.1-1.8-3.1c-0.1-8.4-0.4-16.7,0.1-25.1c0.6-11,7.7-18.5,18.5-20.4
		c0.8-0.2,1.7-0.3,3.5-0.7c-3.6-2.7-4.7-6.9-9.6-7.4c-9.7-1-15-12.9-9.5-21.1c-4-5.5-4.2-11.1,0.3-16.6c0.6-0.8,0.5-2.1,0.8-3.2
		c1.2-5.4,6.4-9.1,11-7.8c0.9,0.3,1.6,1.3,2.3,2c-0.9,0.7-1.7,1.8-2.6,2c-5.4,0.9-6,1.5-6.8,6.6c-0.2,1.3-1.1,2.7-1.9,3.8
		c-1.8,2.5-2.8,5-1.6,7c4-0.7,7.5-1.3,11-2c0.4-0.1,1,0,1.1-0.2c2.4-4.1,7.4-3.4,10.6-6c0.8-0.7,2.8-1,3.6-0.5
		c2.3,1.4,4.2,1.7,6.4-0.1c0.8-0.7,2.6-0.1,3.9-0.2c-0.5,1.1-0.8,2.6-1.7,3.3c-2.5,2.1-5.2,2.4-8.7,2c-2.8-0.3-6,1.4-8.9,2.7
		c-2,0.8-3.7,2.3-5.6,4.4c1-0.2,2.3,0,3-0.6c4.1-3.6,6.7-3.7,11.5-1c1.3,0.7,3.8,0.9,5,0.2c4.2-2.7,7.8-2.9,11.4,0.8
		c0.4,0.4,1.3,0.2,2.4,0.3c-2.2-2.1-4.1-3.6-5.5-5.5c-0.5-0.6,0.3-2.1,0.4-3.2c0.9,0.3,1.9,0.6,2.8,1c1.6,0.7,3.1,1.6,4.6,2.3
		c0.4-1.6,0.7-3.1,1.1-4.7c0.1-0.2-0.1-0.6,0-0.7c2.7-4.6-1-7.5-2.9-10.9c-1.3-2.3-3.3-3.1-6-2.9c-1.9,0.2-3.9,0.2-5.8-0.1
		c-1.7-0.3-3.4-1.1-4.7-2.2c-3.2-2.7-7-2.1-9.3,1.3c-0.7,1.1-2.2,1.7-3.3,2.5c0-1.5-0.6-3.3,0-4.6c2.4-5.2,9.7-6.4,14.5-3.2
		c2.1,1.4,5.2,2.2,7.8,2.1c4.5-0.2,8.4,1.4,10.6,5.4c2.5,4.6,4.6,5.3,9.4,3.2c0.3-0.2,0.7-0.5,1-0.4c6.3,1.5,11-3.7,16.8-4
		c2.8-0.1,6.2-0.8,8.4,0.4c6.7,3.5,14.2,3.1,21,5.7c3.1,1.2,4.9,3.4,5.1,6.7c0.2,2.2,0.4,4.5-0.1,6.6c-0.9,4.3-2.1,8.6-3.3,12.8
		c-0.2,0.8-0.7,1.8-1.3,2.2c-4.5,2.5-5.4,7.2-7.3,11.4c-1.6,3.6-4.7,6.5-7.4,10.2c1.1,0.2,2.2,0.5,3.3,0.7
		c10.1,1.8,17.2,9.6,17.7,19.8c0.4,8.5,0.2,17,0.2,25.4c0,1.1-1.1,2.1-1.7,3.2c-0.8-1-2.1-2-2.2-3.1c-0.3-3.9-0.1-11.1-0.1-11.1
		h-7.6c0,0,0.2,6.7-0.1,10.5c-0.1,1.3-1.3,2.5-2,3.7c-0.7-1.2-2-2.5-2-3.7c-0.2-5.7-0.2-11.5,0-17.2c0.1-1.4,1.3-2.7,2-4.1
		c0.7,1.3,1.4,2.7,2.2,4C293.3,152.4,293.3,152.7,293.5,153.3z M288.9,75.9c0.8,1.7,1.7,3.1,2.1,4.5c0.2,0.8-0.4,1.9-0.6,2.9
		c-0.9-0.4-2-0.6-2.8-1.2c-0.6-0.4-0.8-1.3-1.1-1.9c-3.9-6.6-11.6-9.9-19.3-8.2c-6.9,1.5-12.5,7.6-13,15.1
		c-0.4,6.7-0.3,13.4,0.1,20.2c0.1,2.5,1.6,5,2.5,8c8.7-10.9,20.1-10.9,29.4,0c1-3.4,2.2-6.3,2.5-9.3c0.4-4.3,0.2-8.7,0.2-13.1
		c0-5.9,1.7-7,7.3-4.9c0.7,0.2,1.3,0.5,2.4,0.8c0-2.9,0.2-5.5-0.1-8c-0.1-1-1.1-2.4-2-2.8C294.3,77.1,291.8,76.7,288.9,75.9z
		 M203.3,96.9c0,4-0.3,7.2,0.1,10.3c0.9,7,4.9,12,11.7,14.1c13.2,4.1,23.9-6.3,23.1-18.3c-0.1-1.3,1.2-2.6,1.8-3.9
		c0.7,1.3,2,2.6,2.1,4c0.1,2.9-0.4,5.9-0.7,9.7c1.6-1.8,2.4-3,3.5-4s2.5-1.7,3.7-2.5c-2-2.3-4-3.9-5.1-6c-1.1-2.2-1.3-4.8-2.2-8.3
		c-2.2,3.1-4.3,5.5-5.9,8.3c-2.7,4.8-8.3,6.1-12.3,2.4c-1-0.9-1.7-2-2.6-3C214.2,107.3,211.4,106.9,203.3,96.9z M249.7,110.9
		c-0.9,0.7-2.2,1.8-3.5,2.7c-1.5,1-3,2.6-4.7,2.7c-4.8,0.5-6.1,4.8-9,6.9c4.5,1.8,8.6,3.5,12.7,5.2c0.4,0.2,1,0.3,1.4,0.1
		c4.3-1.7,8.5-3.5,12.5-5.1C256.1,119.6,253.1,115.5,249.7,110.9z M263.2,126c0.8,2.2,1,5.1,2.4,6.2c5.3,4.2,5.6,3.9,11.4,0.5
		c3.3-1.9,1.9-4.6,2-6.7C274,126,269.3,126,263.2,126z M227.9,126c-5,0-9.8,0-15.5,0c0.6,2,0.6,4.9,2,6.1c5,4.3,6,4,11.7,0.5
		C229.4,130.7,228.1,128.1,227.9,126z M259.8,118c4.9,7,20.3,5.7,23.3,0C275.4,118,267.4,118,259.8,118z M253.7,75.9
		c-9.2,2.5-11.1,5.3-8.4,13.2c1.7-1.2,4-1.9,4.9-3.5C251.7,82.7,252.5,79.3,253.7,75.9z M208.7,128.7c-0.4-0.2-0.8-0.4-1.2-0.5
		c-0.8,0.8-2.5,1.7-2.4,2.3c0.6,2.4,1.1,5.1,2.6,6.9c2,2.3,5,3.1,8.2,0.9C213.4,135,207.2,135,208.7,128.7z M232.3,129.1
		c1.6,6-4.8,6-7.1,9.2c5.9,2.4,11.1-1,10.9-6.9C236,129,235.1,128.2,232.3,129.1z M233.7,97.2c-2.5-1.9-4-3.9-5.2-3.8
		c-1.4,0.2-2.6,2.3-3.9,3.6c1.3,1.3,2.4,3.2,3.9,3.5C229.6,100.7,231.2,98.9,233.7,97.2z M217,97.9c0-0.6,0-1.1,0-1.7
		c-1.5-1-3.1-2.9-4.3-2.8c-1.4,0.2-3.2,2.3-3.5,3.7c-0.2,0.9,2.1,3.2,3.4,3.3C214,100.5,215.5,98.8,217,97.9z M199.6,111.9
		c1.4-6.3-5.1-7.1-7.3-11.2C190.5,104.9,194.7,111,199.6,111.9z M267,138.1c-3.1-3.1-9.1-3.4-7.3-9.9c-2.6,1.8-1.6,6.9,1.7,13
		C263.1,140.2,264.9,139.2,267,138.1z M266.1,114c3.7,0,7.2,0,11,0C273.4,109.6,269.5,109.6,266.1,114z M199,91.2
		c-4.7,2.6-4.5,6.7,0,9.5C199,97.6,199,94.6,199,91.2z M250,91.2c-4.6,2.7-4.4,6.9,0,9.5C250,97.6,250,94.6,250,91.2z M294,91.5
		c0,3.2,0,6.2,0,9.4C298.4,97.3,298.3,93.4,294,91.5z"/>
	<path class="st1" d="M157.4,203.6c4.3,3,5.5,5.8,4.5,9.9c-0.9,3.7-3.8,6.3-8.5,6.5c-5.3,0.3-10.7,0.1-16.4,0.1c0-10.1,0-20,0-30
		c6.1,0,12.1-0.4,18,0.2c1.9,0.2,4.2,2.6,5.2,4.5C161.8,197.8,160.7,200,157.4,203.6z M143,214.7c2.9,0,5.5,0.2,8.1,0
		c2.3-0.2,4-1.7,3.4-3.9c-0.4-1.6-2.1-3.5-3.6-3.9c-2.4-0.6-5.1-0.2-7.9-0.2C143,209.4,143,211.9,143,214.7z M143,195.3
		c0,2.5,0,4.5,0,6.7c2.6,0,5,0.4,7.2-0.2c1.3-0.3,2.7-2.1,2.9-3.4c0.1-0.9-1.7-2.7-2.9-3C148,194.9,145.6,195.3,143,195.3z"/>
	<path class="st1" d="M325.3,205.6c5.2,3.8,3.1,9.4,4.6,14c-5.9,1.4-6.4,1.1-7.2-4.2c-1-7.2-2.4-8-11.7-6.8c0,3.7,0,7.4,0,11.4
		c-2.5,0-4.5,0-7,0c0-6.5,0-12.8,0-19.1c0-3.6-1.1-8.7,0.7-10.3c2.1-1.9,7-0.8,10.7-1c1.4-0.1,2.7,0,4.1,0c4.2,0,7.8,1.3,9.3,5.5
		C330.2,199.1,329.3,202.8,325.3,205.6z M311.6,203.5c2.5,0,5.2,0.4,7.7-0.2c1.4-0.3,3.1-2.3,3.2-3.7c0.1-1.3-1.2-3.7-2.4-4.2
		C312.4,192.8,309.8,195.3,311.6,203.5z"/>
	<path class="st2" d="M377,214c5.2,0,10.6,0,16,0c0,1.9,0,4.1,0,6c-7.6,0-15.1,0-23,0c0-10,0-20,0-30.6c7.1,0,14.3-0.1,21.4,0.2
		c0.8,0,1.4,3,2.5,5.4c-6.3,0-11.7,0-16.9,0c0,2.5,0,4.5,0,7c4.7,0,9.2,0,14,0c0,2,0,3.2,0,5c-4.6,0-9.2,0-14,0
		C377,209.4,377,211.5,377,214z"/>
	<path class="st3" d="M231,214c0,2.1,0,4.2,0,6c-7.6,0-15.1,0-23,0c0-9.8,0-19.8,0-30c7.5,0,14.2,0,22,0c0,1.6,0,3.1,0,5
		c-5.2,0-10.5,0-16,0c0,2.2,0,4.8,0,7c5,0,9.9,0,15,0c0,1.9,0,3.2,0,5c-4.9,0-9.1,0-14,0c0,2.4,0,4.5,0,7
		C220.2,214,225.4,214,231,214z"/>
	<path class="st4" d="M177.8,190c0,6.5,0,12.4,0,18.2c0,5.2,1.6,6.9,6.2,6.9c4.6,0,6.2-1.6,6.2-6.8c0.1-6,0-11.9,0-17.8
		c6-1.9,6.9-1.3,6.9,4.4c0,4.5,0.1,9,0,13.5c-0.1,4.9-1.4,9.3-6.4,11.3c-5.4,2.1-11,2.4-15.6-1.5c-2-1.7-3.6-5-3.8-7.6
		c-0.5-6.7-0.2-13.4-0.2-20.5C173.3,190,175.4,190,177.8,190z"/>
	<path class="st5" d="M267,219.8c3.6-9.7,7.1-19,10.8-28.2c0.4-1,2.4-1.9,3.7-1.9c1.5,0,3.9,0.6,4.3,1.6c3.8,9.3,7.2,18.7,10.7,28.2
		c-5.8,1.7-6.3,1.3-8.4-3.8c-0.4-1-1.9-1.9-3-2.3c-1-0.4-2.2,0.1-3.3-0.1c-4-0.6-6.5,0.5-7.3,4.9C273.9,220.7,272.8,220.8,267,219.8
		z M281.8,197.4c-1.4,4.1-2.5,7.3-3.7,10.6c2.6,0,4.7,0,7.3,0C284.2,204.4,283.2,201.4,281.8,197.4z"/>
	<path class="st5" d="M128.4,219.8c-6.1,1.1-6,1.1-8.3-4.2c-0.4-1-1.8-2-2.8-2.1c-3-0.3-6-0.1-8.8-0.1c-3.4,7.3-3.4,7.3-9.4,6.5
		c1.2-3.3,2.4-6.5,3.6-9.7c2.3-6,4.7-12.1,6.8-18.2c0.8-2.4,2.4-2.5,4.3-2.4c1.8,0.1,3.6-0.3,4.5,2.2c3.2,8.9,6.5,17.7,9.8,26.6
		C128.3,218.8,128.3,219.3,128.4,219.8z M113.9,197.4c-1.5,4.2-2.6,7.2-3.8,10.6c2.6,0,4.7,0,7.4,0
		C116.4,204.6,115.3,201.5,113.9,197.4z"/>
	<path class="st4" d="M346,196c-3.5,0-5.8,0-9,0c0-2.1,0-3.9,0-6c8.9,0,16.6,0,25,0c0,1.7,0,3.1,0,5c-2.8,0-5.7,0-9,0
		c0,7.8,0,16.9,0,25c-2.5,0-4.5,0-7,0C346,212.2,346,204.4,346,196z"/>
	<path class="st6" d="M246,215c5,0,10.2,0,15,0c0,1.9,0,3.3,0,5c-7,0-13.9,0-21,0c0-9.3,0-19.6,0-30c1.8,0,3.7,0,6,0
		C246,198.1,246,206.2,246,215z"/>
	<path class="st1" d="M249.8,154.7c-4.9-0.1-2.6,0-7.5-0.1c-0.2,5.3,0.2,10.3-0.1,15.3c-0.1,1.1-1.3,2.2-2,3.3
		c-0.7-1.1-1.9-2.2-1.9-3.3c-0.2-5-0.2-9.9-0.1-14.9c0.1-3.4,0.9-3.5,4.1-2.2c2.1,0.9,4.7,0.7,7.4,1.1c0.1-1.8,0-3.1,0.4-4.2
		c0.3-0.7,1.3-1.7,1.9-1.7s1.8,1.1,1.8,1.7c0.1,7.2,0.1,14.4,0,21.6c0,0.6-1.2,1.2-1.8,1.9c-0.7-0.8-1.9-1.7-2-2.5
		C249.7,165.7,249.9,160.6,249.8,154.7z"/>
	<path d="M306.4,254.4c0.4-5.4,0.9-10.8,1.3-16.1c3.7-1.3,5.8-0.5,6.6,3.3c0.4,1.9,1.2,3.7,2.6,5.7c0.7-1.9,1.5-3.8,1.9-5.7
		c0.8-3.8,3-4.4,6.6-3.2c0.5,5.3,0.9,10.8,1.4,16.3c-2.3,1.1-3.7,0.9-3.8-1.9c-0.2-2.8-0.5-5.6-1.5-8.4c-0.9,2.6-1.7,5.3-2.7,7.9
		c-0.5,1.1-1.5,2-2.2,3c-0.7-1-1.7-2-2.1-3.1c-1-2.4-1.7-4.9-3.3-7.4c-0.3,2.7-0.5,5.4-0.9,8C309.8,255.4,309.7,255.4,306.4,254.4z"
		/>
	<path d="M266.5,244.5c0,2.9,0,5.5,0,8.1c0.1,2.5-1.2,3-3.5,2.2c0-5.6,0-11.1,0-17c7.4-0.4,6.6,7.6,11.5,10.4c0-2.7-0.1-5.2,0-7.6
		c0.1-2.8,0.1-2.8,3.5-2.4c0,5.4,0,10.9,0,16.9C270.5,255.4,271.3,247.4,266.5,244.5z"/>
	<path d="M206.1,255.3c-5.3-0.1-8.9-3.8-8.8-9.1c0.1-5,3.9-8.6,9-8.5c5.2,0.1,9,4,8.8,9.1C215,251.8,211.2,255.3,206.1,255.3z
		 M206.2,241c-3.2,0-5.2,2.2-5.1,5.5c0.1,3.1,2.1,5.3,5,5.4c3,0.1,5.4-2.3,5.4-5.4C211.4,243.2,209.3,241,206.2,241z"/>
	<path d="M259.8,246.4c0.1,5.2-3.4,8.8-8.5,8.9c-5.4,0.1-9-3.3-9.1-8.7c-0.1-5.2,3.4-8.8,8.5-8.9C256.1,237.5,259.7,241,259.8,246.4
		z M246,246.2c-0.1,3.3,1.9,5.7,5,5.7c2.8,0.1,5.1-2.2,5.3-5.1c0.2-3.3-1.8-5.7-4.9-5.8C248.1,240.9,246,242.9,246,246.2z"/>
	<path d="M338,255.3c-5.3-0.1-8.8-3.8-8.7-9.1c0.1-5,3.9-8.5,9-8.5c5.2,0.1,8.9,4,8.7,9.1C346.9,251.9,343.2,255.3,338,255.3z
		 M343.4,246.6c0-3.3-2.1-5.5-5.2-5.5c-3.2,0-5.2,2.1-5.2,5.5c0,3.1,2,5.3,4.9,5.5C341,252.1,343.4,249.7,343.4,246.6z"/>
	<path d="M132,237.3c0,2.3,0,4.4,0,6.7c2.5,0,4.6,0,7.3,0c0.1-2.1,0.2-4.2,0.4-6.5c2-0.6,3.7-0.9,3.7,2c0,4.4,0.1,8.9-0.1,13.3
		c0,0.8-1.1,1.6-1.7,2.4c-0.7-0.9-1.7-1.6-1.9-2.6c-0.3-1.3-0.1-2.8-0.1-4.6c-2.5,0-4.8,0-7.4,0c-0.1,2.2-0.2,4.3-0.3,6.7
		c-2.5,1-3.9,0.7-3.9-2.4c0.1-4,0-8.1,0-12.1C128.1,237.2,128.1,237.2,132,237.3z"/>
	<path d="M363.3,255c-5.8,1.3-4.9-5.3-8.1-7c-2.6,1.6,2.3,7.3-4.2,7.1c0-5.6,0-11.2,0-16.7c5.7-1.5,9.7-0.7,11,2.2
		c1.4,3.1,0,5.2-2.7,6.8c1.4,2.4,2.7,4.8,4,7.2C363.4,254.6,363.3,254.8,363.3,255z M354,245.1c1.5-0.4,2.8-0.7,3.9-1.2
		c0.7-0.4,0.7-1.4,0-1.8c-1.1-0.6-2.4-0.8-3.9-1.3V245.1z"/>
	<path d="M240.1,250.5c-2.1,3.9-5.9,5.6-10.2,4.5c-4-1-6.5-4.5-6.3-9c0.1-4,2.7-7.3,6.4-8.1c4.9-1.1,8.1,0.4,10.1,4.6
		c-1.5,1.4-2.6,1.6-4.2-0.2c-2.1-2.2-4.8-2-7-0.1c-2,1.7-2.2,5.9-0.3,7.8c2.1,2.2,4.6,2,7.1,0.5c1.2-0.7,2.6-1,3.9-1.6
		C239.7,249.6,239.9,250.1,240.1,250.5z"/>
	<path d="M176.1,249.3c-1.6,5-5.4,6.8-9.8,5.7c-3.9-0.9-6.4-4.2-6.5-8.5c-0.1-4.2,2.5-7.7,6.3-8.6c4.8-1.1,8.1,0.3,10.3,4.5
		c-1.4,1.3-2.5,1.8-4.2,0c-2.1-2.2-5.6-2.1-7.3,0c-2,2.4-1.9,5.1-0.1,7.6c1.5,2.1,4.9,2.1,7.4,0.5
		C173.3,249.9,174.8,249.7,176.1,249.3z"/>
	<path d="M287.6,254.5c1.8-5,3.6-10,5.6-14.9c0.3-0.8,1.8-1.6,2.8-1.6c0.9,0,2.4,0.8,2.8,1.6c2,4.9,3.8,9.9,5.1,15.8
		c-1.1-0.5-2.7-0.6-3.3-1.5c-2.5-3.3-6.6-3.3-9,0c-0.6,0.8-2,1.1-3.1,1.7C288.1,255.2,287.9,254.8,287.6,254.5z M293.6,248
		c1.7,0,3,0,4.7,0c-0.7-2.1-1.4-4.1-2.3-6.7C295.1,243.9,294.4,245.8,293.6,248z"/>
	<path d="M151,241.1c0,1.4,0,2.3,0,3.5c1.4,0.1,2.6,0,3.8,0.3c0.7,0.1,1.2,0.9,1.7,1.4c-0.6,0.6-1.1,1.4-1.8,1.7
		c-0.8,0.3-1.8-0.1-2.6,0.2c-0.6,0.3-1.3,1.2-1.3,1.8c0,0.6,0.8,1.3,1.3,1.8c0.2,0.2,0.7,0,1.1,0.1c1.4,0.4,4-1,3.8,1.9
		c-0.1,0.6-2.4,1.3-3.8,1.4c-1.8,0.2-3.7,0.1-6.2,0.1c0-5.4,0-10.6,0.1-15.8c0-0.5,1-1.4,1.6-1.5c2.2-0.2,4.5-0.2,6.7,0
		c0.6,0.1,1.2,1.1,1.8,1.7c-0.6,0.5-1.1,1.2-1.8,1.3C154.2,241.2,152.8,241.1,151,241.1z"/>
	<path class="st1" d="M200.3,84.2c-1.6-1.2-3-1.7-3-2.3c-0.1-0.8,0.9-1.8,1.6-2.4c1.3-1.1,2.8-2.1,4.3-3c0.7-0.4,1.7-0.4,2.6-0.6
		c0.2,0.9,1,2.4,0.6,2.8C204.6,80.5,202.5,82.2,200.3,84.2z"/>
	<path class="st1" d="M234.9,80.4c-2.2-2-4.3-3.7-6.1-5.7c-0.4-0.4,0.4-1.8,0.6-2.8c0.9,0.2,1.8,0.3,2.6,0.7c1.5,0.9,3,1.9,4.3,3
		c0.7,0.6,1.7,1.7,1.5,2.4C237.8,78.7,236.5,79.2,234.9,80.4z"/>
	<path class="st1" d="M216.2,73.9c1-0.6,1.9-1.3,2.9-1.7c0.8-0.3,2.1-0.4,2.6,0.1c0.5,0.4,0.6,1.9,0.2,2.5c-1.5,2.4-3.8,3.6-6.6,2.7
		c-1-0.3-1.6-1.8-2.4-2.8c0.9-0.6,1.8-1.2,2.7-1.8C215.9,73.2,216.1,73.6,216.2,73.9z"/>
	<path class="st1" d="M281.5,158.9c-1.8-1.3-3.8-2.1-3.9-3c-0.3-2.7,2.2-2.3,3.7-2.1c1.3,0.2,2.5,1.2,3.8,1.9
		C284.1,156.5,283,157.5,281.5,158.9z"/>
	<path class="st0" d="M288.9,75.9c2.8,0.8,5.3,1.2,7.6,2.1c0.9,0.4,1.9,1.8,2,2.8c0.3,2.5,0.1,5.1,0.1,8c-1.1-0.4-1.8-0.6-2.4-0.8
		c-5.5-2.1-7.2-0.9-7.3,4.9c0,4.4,0.2,8.8-0.2,13.1c-0.3,3-1.5,5.8-2.5,9.3c-9.3-10.9-20.6-10.9-29.4,0c-1-3-2.4-5.4-2.5-8
		c-0.4-6.7-0.5-13.5-0.1-20.2c0.4-7.5,6-13.6,13-15.1c7.7-1.7,15.4,1.5,19.3,8.2c0.4,0.6,0.6,1.5,1.1,1.9c0.8,0.6,1.8,0.8,2.8,1.2
		c0.2-1,0.8-2,0.6-2.9C290.7,79,289.8,77.6,288.9,75.9z M264.7,81.9c-1.3,0.6-2.8,1.2-4.1,2c-0.5,0.3-0.7,1.5-0.5,2.2
		c0.1,0.5,1.4,1.2,1.6,1c3.1-1.8,5.7-0.1,8.5,0.8c1.2,0.4,2.7-0.2,4-0.4c2.1-0.2,4.2-0.4,6.3-0.6c0.9-0.1,1.7-0.5,2.5-0.8
		c-0.3-0.9-0.5-2.6-1.1-2.7c-2.3-0.5-4.9-1.2-7-0.5c-2.4,0.7-4.4,1.3-6.7-0.1C267.3,82.4,266.1,82.3,264.7,81.9z M271.5,80.6
		c1.4-0.4,2.9-0.5,4-1.2c0.8-0.5,1.2-1.8,1.8-2.7c-1-0.3-1.9-0.8-2.9-0.9c-2-0.2-4.1-0.2-6.1-0.1c-0.8,0.1-1.7,0.7-2.5,1.1
		c0.4,0.8,0.6,2,1.2,2.4C268.3,79.9,269.9,80.1,271.5,80.6z M280,95C280,95.1,280,95.1,280,95c0.9,0,1.9,0.3,2.6,0
		c0.9-0.4,1.6-1.4,2.4-2.1c-0.8-0.6-1.5-1.6-2.3-1.7c-1.8-0.3-3.7-0.2-5.5,0c-0.7,0.1-1.7,1.2-1.7,1.8c0,0.7,1,1.6,1.7,1.9
		C277.9,95.3,279,95,280,95z M263,91.2L263,91.2c-0.9-0.1-1.8-0.3-2.6,0c-1,0.4-1.7,1.2-2.6,1.9c0.8,0.7,1.6,1.7,2.6,1.9
		c1.8,0.3,3.7,0.2,5.5-0.1c0.6-0.1,1.4-1.3,1.5-2c0.1-0.5-0.9-1.4-1.6-1.6C265,91,264,91.2,263,91.2z"/>
	<path class="st0" d="M203.3,96.9c8.1,10,10.9,10.3,17.3,2.7c0.9,1,1.6,2.1,2.6,3c3.9,3.7,9.6,2.5,12.3-2.4c1.5-2.7,3.6-5.1,5.9-8.3
		c0.9,3.5,1.1,6.1,2.2,8.3c1.1,2.1,3.1,3.7,5.1,6c-1.2,0.8-2.5,1.5-3.7,2.5c-1.1,0.9-1.9,2.2-3.5,4c0.3-3.8,0.8-6.8,0.7-9.7
		c-0.1-1.4-1.3-2.7-2.1-4c-0.6,1.3-1.9,2.6-1.8,3.9c0.8,12-9.9,22.4-23.1,18.3c-6.8-2.1-10.8-7.1-11.7-14.1
		C202.9,104.2,203.3,101,203.3,96.9z M220.6,116.8c1.8-0.9,3.6-1.6,5-2.6c0.5-0.4,0.6-1.9,0.2-2.5c-0.3-0.5-1.9-0.9-2.4-0.5
		c-2.1,1.3-3.8,1.2-5.9-0.1c-0.5-0.3-2,0.2-2.4,0.7c-0.3,0.6-0.1,2.1,0.4,2.5C217,115.3,218.7,115.9,220.6,116.8z M235.1,110.6
		c-1.9-1.5-3.2-2.7-4.7-3.6c-0.2-0.1-1.3,1.3-2,2c1.3,1.3,2.5,2.6,3.9,3.7C232.5,112.8,233.8,111.6,235.1,110.6z M208.6,113.7
		c1.6-1.9,2.9-3.1,3.8-4.6c0.2-0.3-1.1-1.5-1.6-2.3c-1.3,1.2-2.8,2.2-3.8,3.6C206.7,110.8,207.8,112.1,208.6,113.7z"/>
	<path class="st0" d="M249.7,110.9c3.4,4.5,6.4,8.6,9.3,12.6c-3.9,1.6-8.2,3.4-12.5,5.1c-0.4,0.2-1,0-1.4-0.1
		c-4.1-1.6-8.2-3.3-12.7-5.2c2.9-2.1,4.2-6.4,9-6.9c1.6-0.2,3.2-1.7,4.7-2.7S248.8,111.6,249.7,110.9z"/>
	<path class="st0" d="M263.2,126c6.1,0,10.8,0,15.8,0c0,2.2,1.3,4.8-2,6.7c-5.7,3.4-6.1,3.7-11.4-0.5
		C264.1,131.1,264,128.2,263.2,126z"/>
	<path class="st0" d="M227.9,126c0.1,2.1,1.4,4.7-1.8,6.7c-5.6,3.4-6.7,3.7-11.7-0.5c-1.4-1.2-1.4-4.1-2-6.1
		C218.2,126,222.9,126,227.9,126z"/>
	<path class="st0" d="M259.8,118c7.6,0,15.6,0,23.3,0C280.2,123.7,264.7,125,259.8,118z"/>
	<path class="st0" d="M253.7,75.9c-1.2,3.4-2,6.8-3.6,9.8c-0.8,1.5-3.1,2.3-4.9,3.5C242.6,81.3,244.5,78.4,253.7,75.9z"/>
	<path class="st0" d="M208.7,128.7c-1.5,6.3,4.7,6.3,7.3,9.5c-3.2,2.2-6.2,1.4-8.2-0.9c-1.5-1.7-2.1-4.5-2.6-6.9
		c-0.1-0.5,1.5-1.5,2.4-2.3C207.9,128.3,208.3,128.5,208.7,128.7z"/>
	<path class="st0" d="M232.3,129.1c2.8-0.9,3.8-0.1,3.8,2.3c0.1,5.9-5,9.3-10.9,6.9C227.4,135,233.8,135.1,232.3,129.1z"/>
	<path class="st0" d="M233.7,97.2c-2.5,1.7-4.1,3.5-5.2,3.3c-1.5-0.3-2.6-2.3-3.9-3.5c1.3-1.3,2.5-3.4,3.9-3.6
		C229.7,93.2,231.2,95.3,233.7,97.2z"/>
	<path class="st0" d="M217,97.9c-1.5,0.9-3,2.7-4.4,2.6c-1.3-0.1-3.6-2.3-3.4-3.3c0.3-1.5,2.1-3.5,3.5-3.7c1.3-0.2,2.9,1.8,4.3,2.8
		C217,96.8,217,97.3,217,97.9z"/>
	<path class="st0" d="M199.6,111.9c-4.9-0.9-9.1-7-7.3-11.2C194.5,104.8,201,105.6,199.6,111.9z"/>
	<path class="st0" d="M267,138.1c-2.1,1.1-3.8,2.1-5.6,3.1c-3.3-6.1-4.3-11.2-1.7-13C257.9,134.7,263.9,135,267,138.1z"/>
	<path class="st0" d="M266.1,114c3.4-4.4,7.3-4.4,11,0C273.2,114,269.8,114,266.1,114z"/>
	<path class="st0" d="M199,91.2c0,3.4,0,6.4,0,9.5C194.5,97.9,194.3,93.8,199,91.2z"/>
	<path class="st0" d="M250,91.2c0,3.4,0,6.4,0,9.5C245.5,98.1,245.4,93.9,250,91.2z"/>
	<path class="st0" d="M294,91.5c4.3,1.9,4.4,5.7,0,9.4C294,97.7,294,94.7,294,91.5z"/>
	<path class="st0" d="M143,214.7c0-2.9,0-5.3,0-8c2.8,0,5.5-0.5,7.9,0.2c1.5,0.4,3.1,2.3,3.6,3.9c0.6,2.2-1.1,3.8-3.4,3.9
		C148.5,214.9,145.9,214.7,143,214.7z"/>
	<path class="st0" d="M143,195.3c2.6,0,5-0.3,7.2,0.1c1.2,0.3,3,2.1,2.9,3c-0.2,1.3-1.7,3.1-2.9,3.4c-2.2,0.6-4.6,0.2-7.2,0.2
		C143,199.7,143,197.8,143,195.3z"/>
	<path class="st0" d="M311.6,203.5c-1.8-8.2,0.8-10.7,8.4-8c1.2,0.4,2.6,2.8,2.4,4.2c-0.1,1.4-1.8,3.3-3.2,3.7
		C316.8,203.9,314.1,203.5,311.6,203.5z"/>
	<path class="st0" d="M281.8,197.4c1.4,4,2.4,7.1,3.7,10.6c-2.6,0-4.7,0-7.3,0C279.3,204.7,280.4,201.5,281.8,197.4z"/>
	<path class="st0" d="M113.9,197.4c1.4,4.2,2.4,7.2,3.6,10.6c-2.6,0-4.8,0-7.4,0C111.4,204.6,112.5,201.6,113.9,197.4z"/>
	<path class="st0" d="M206.2,241c3.1,0,5.2,2.2,5.2,5.5c0,3.1-2.3,5.5-5.4,5.4c-2.9-0.1-4.9-2.3-5-5.4
		C201,243.2,203,241.1,206.2,241z"/>
	<path class="st0" d="M246,246.2c0.1-3.4,2.1-5.3,5.4-5.2c3,0.1,5,2.5,4.9,5.8c-0.1,2.9-2.5,5.2-5.3,5.1
		C247.9,251.9,245.9,249.6,246,246.2z"/>
	<path class="st0" d="M343.4,246.6c0,3.1-2.5,5.5-5.4,5.4s-4.9-2.3-4.9-5.5c0-3.4,1.9-5.5,5.2-5.5
		C341.3,241,343.4,243.3,343.4,246.6z"/>
	<path class="st0" d="M354,245.1v-4.3c1.6,0.5,2.8,0.7,3.9,1.3c0.7,0.4,0.7,1.4,0,1.8C356.8,244.4,355.5,244.6,354,245.1z"/>
	<path class="st0" d="M293.6,248c0.8-2.2,1.4-4.1,2.4-6.7c0.9,2.7,1.6,4.6,2.3,6.7C296.6,248,295.3,248,293.6,248z"/>
	<path class="st1" d="M264.7,81.9c1.4,0.4,2.6,0.5,3.6,1.1c2.3,1.4,4.3,0.8,6.7,0.1c2.1-0.6,4.7,0.1,7,0.5c0.5,0.1,0.7,1.7,1.1,2.7
		c-0.8,0.3-1.7,0.6-2.5,0.8c-2.1,0.3-4.2,0.4-6.3,0.6c-1.3,0.1-2.8,0.7-4,0.4c-2.8-0.9-5.4-2.6-8.5-0.8c-0.3,0.2-1.5-0.6-1.6-1
		c-0.2-0.7,0-1.9,0.5-2.2C261.9,83.1,263.4,82.5,264.7,81.9z"/>
	<path class="st1" d="M271.5,80.6c-1.5-0.5-3.1-0.7-4.5-1.5c-0.6-0.3-0.8-1.5-1.2-2.4c0.8-0.4,1.6-1,2.5-1.1c2-0.1,4.1-0.1,6.1,0.1
		c1,0.1,1.9,0.6,2.9,0.9c-0.6,0.9-0.9,2.2-1.8,2.7C274.4,80.1,272.9,80.2,271.5,80.6z"/>
	<path class="st1" d="M280,95c-1,0-2.1,0.3-2.9-0.1c-0.8-0.3-1.7-1.2-1.7-1.9c0-0.6,1-1.7,1.7-1.8c1.8-0.3,3.7-0.3,5.5,0
		c0.8,0.1,1.6,1.1,2.3,1.7c-0.8,0.7-1.5,1.6-2.4,2.1C281.8,95.4,280.8,95.1,280,95C280,95.1,280,95.1,280,95z"/>
	<path class="st1" d="M263,91.2c1,0,2-0.2,2.9,0.1c0.7,0.2,1.6,1.1,1.6,1.6c-0.1,0.8-0.9,1.9-1.5,2c-1.8,0.3-3.7,0.4-5.5,0.1
		c-0.9-0.1-1.7-1.2-2.6-1.9c0.8-0.7,1.6-1.5,2.6-1.9C261.1,90.9,262.1,91.2,263,91.2L263,91.2z"/>
	<path class="st1" d="M220.6,116.8c-1.9-0.9-3.6-1.5-5-2.5c-0.5-0.4-0.7-1.9-0.4-2.5c0.3-0.6,1.9-1,2.4-0.7c2,1.3,3.8,1.4,5.9,0.1
		c0.5-0.3,2.1,0,2.4,0.5c0.4,0.6,0.2,2.1-0.2,2.5C224.2,115.2,222.5,115.9,220.6,116.8z"/>
	<path class="st1" d="M235.1,110.6c-1.4,1-2.7,2.2-2.9,2c-1.4-1-2.6-2.4-3.9-3.7c0.7-0.7,1.8-2.1,2-2
		C231.9,107.8,233.2,109,235.1,110.6z"/>
	<path class="st1" d="M208.6,113.7c-0.8-1.6-1.9-2.9-1.7-3.3c1.1-1.4,2.5-2.4,3.8-3.6c0.6,0.8,1.8,1.9,1.6,2.3
		C211.5,110.6,210.2,111.8,208.6,113.7z"/>
</g>
<path d="M183.9,237.8c0,2.3,0,4.4,0,6.7c2.5,0,4.6,0,7.3,0c0.1-2.1,0.2-4.2,0.4-6.5c2-0.6,3.7-0.9,3.7,2c0,4.4,0.1,8.9-0.1,13.3
	c0,0.8-1.1,1.6-1.7,2.4c-0.7-0.9-1.7-1.6-1.9-2.6c-0.3-1.3-0.1-2.8-0.1-4.6c-2.5,0-4.8,0-7.4,0c-0.1,2.2-0.2,4.3-0.3,6.7
	c-2.5,1-3.9,0.7-3.9-2.4c0.1-4,0-8.1,0-12.1C180,237.6,180.1,237.6,183.9,237.8z"/>
</svg>
